<mxfile host="app.diagrams.net" modified="2023-05-26T17:56:39.703Z" agent="Mozilla/5.0 (Windows NT 10.0; Win64; x64; rv:109.0) Gecko/20100101 Firefox/113.0" etag="Sw87xusyvC6D7YW6PcC5" version="21.3.3" type="github">
  <diagram name="Page-1" id="hbl_of-68QhlwRTPB4iv">
    <mxGraphModel dx="2284" dy="1854" grid="1" gridSize="10" guides="1" tooltips="1" connect="1" arrows="1" fold="1" page="1" pageScale="1" pageWidth="850" pageHeight="1100" math="0" shadow="0">
      <root>
        <mxCell id="0" />
        <mxCell id="1" parent="0" />
        <mxCell id="JUChnPV1bCG0qRwm4uNy-1" value="&lt;h1 style=&quot;font-size: 22px;&quot; align=&quot;left&quot;&gt;&lt;b&gt;&amp;nbsp;&amp;nbsp;&amp;nbsp;&amp;nbsp;&amp;nbsp;&amp;nbsp;&amp;nbsp;&amp;nbsp;&amp;nbsp;&amp;nbsp;&amp;nbsp;&amp;nbsp;&amp;nbsp;&amp;nbsp;&amp;nbsp;&amp;nbsp;&amp;nbsp;&amp;nbsp;&amp;nbsp;&amp;nbsp;&amp;nbsp;&amp;nbsp;&amp;nbsp;&amp;nbsp;&amp;nbsp;&amp;nbsp;&amp;nbsp;&amp;nbsp;&amp;nbsp;&amp;nbsp;&amp;nbsp;&amp;nbsp;&amp;nbsp;&amp;nbsp;&amp;nbsp;&amp;nbsp;&amp;nbsp;&amp;nbsp;&amp;nbsp;&amp;nbsp;&amp;nbsp;&amp;nbsp;&amp;nbsp; Hot Products&lt;/b&gt;&lt;/h1&gt;" style="rounded=0;whiteSpace=wrap;html=1;align=left;" vertex="1" parent="1">
          <mxGeometry x="-115" y="-230" width="790" height="2120" as="geometry" />
        </mxCell>
        <mxCell id="JUChnPV1bCG0qRwm4uNy-2" value="LOGO" style="rounded=0;whiteSpace=wrap;html=1;" vertex="1" parent="1">
          <mxGeometry x="235" y="-210" width="90" height="30" as="geometry" />
        </mxCell>
        <mxCell id="JUChnPV1bCG0qRwm4uNy-3" value="&lt;div&gt;3x background images with a slider and&lt;br&gt;&lt;/div&gt;&lt;div&gt;&amp;nbsp;points to change the background , some seo keywords&lt;br&gt;&lt;/div&gt;" style="rounded=0;whiteSpace=wrap;html=1;" vertex="1" parent="1">
          <mxGeometry x="-55" y="-150" width="670" height="280" as="geometry" />
        </mxCell>
        <mxCell id="JUChnPV1bCG0qRwm4uNy-5" value="" style="verticalLabelPosition=bottom;shadow=0;dashed=0;align=center;html=1;verticalAlign=top;strokeWidth=1;shape=mxgraph.mockup.misc.shoppingCart;strokeColor=#999999;" vertex="1" parent="1">
          <mxGeometry x="530" y="-210" width="30" height="30" as="geometry" />
        </mxCell>
        <mxCell id="JUChnPV1bCG0qRwm4uNy-7" value="" style="shape=image;html=1;verticalAlign=top;verticalLabelPosition=bottom;labelBackgroundColor=#ffffff;imageAspect=0;aspect=fixed;image=https://cdn3.iconfinder.com/data/icons/minimalisticons/28/burger-menu-1-128.png" vertex="1" parent="1">
          <mxGeometry x="580" y="-210" width="30" height="30" as="geometry" />
        </mxCell>
        <mxCell id="JUChnPV1bCG0qRwm4uNy-9" value="picture with spring vegetable plant and a button to a another site&amp;nbsp; with a list with the available products in the spring season" style="rounded=0;whiteSpace=wrap;html=1;shadow=0;" vertex="1" parent="1">
          <mxGeometry x="-40" y="160" width="130" height="180" as="geometry" />
        </mxCell>
        <mxCell id="JUChnPV1bCG0qRwm4uNy-37" value="picture with summer vegetable plant and a button to a another site&amp;nbsp; with a list with the available products in the summer season" style="rounded=0;whiteSpace=wrap;html=1;shadow=0;" vertex="1" parent="1">
          <mxGeometry x="130" y="160" width="130" height="180" as="geometry" />
        </mxCell>
        <mxCell id="JUChnPV1bCG0qRwm4uNy-38" value="picture with autum vegetable plant and a button to a another site&amp;nbsp; with a list with the available products in the autum season" style="rounded=0;whiteSpace=wrap;html=1;shadow=0;" vertex="1" parent="1">
          <mxGeometry x="300" y="160" width="130" height="180" as="geometry" />
        </mxCell>
        <mxCell id="JUChnPV1bCG0qRwm4uNy-40" value="picture with spring vegetable plant and a button to a another site&amp;nbsp; with a list with the available products in the spring season" style="rounded=0;whiteSpace=wrap;html=1;shadow=0;" vertex="1" parent="1">
          <mxGeometry x="474.5" y="160" width="125" height="180" as="geometry" />
        </mxCell>
        <mxCell id="JUChnPV1bCG0qRwm4uNy-42" value="&amp;nbsp;&amp;nbsp;&amp;nbsp;&amp;nbsp;&amp;nbsp;&amp;nbsp;&amp;nbsp; &amp;nbsp; &amp;nbsp; &amp;nbsp; &amp;nbsp; &amp;nbsp; &amp;nbsp; &amp;nbsp; &amp;nbsp; &amp;nbsp; &amp;nbsp; &amp;nbsp;&amp;nbsp; contact form send with php" style="rounded=0;whiteSpace=wrap;html=1;align=left;" vertex="1" parent="1">
          <mxGeometry x="105" y="360" width="350" height="210" as="geometry" />
        </mxCell>
        <mxCell id="JUChnPV1bCG0qRwm4uNy-43" value="Primary" style="rounded=1;fillColor=#0057D8;strokeColor=none;html=1;whiteSpace=wrap;fontColor=#ffffff;align=center;verticalAlign=middle;fontStyle=0;fontSize=12;sketch=0;" vertex="1" parent="1">
          <mxGeometry x="237" y="530" width="86" height="33" as="geometry" />
        </mxCell>
        <mxCell id="JUChnPV1bCG0qRwm4uNy-48" value="" style="html=1;verticalLabelPosition=bottom;labelBackgroundColor=#ffffff;verticalAlign=top;shadow=0;dashed=0;strokeWidth=2;shape=mxgraph.ios7.misc.left;strokeColor=#0080f0;" vertex="1" parent="1">
          <mxGeometry x="-10" y="610" width="16" height="30" as="geometry" />
        </mxCell>
        <mxCell id="JUChnPV1bCG0qRwm4uNy-49" value="&lt;div style=&quot;font-size: 7px;&quot; align=&quot;center&quot;&gt;Photo of vegetable&lt;br&gt;&lt;/div&gt;" style="rounded=0;whiteSpace=wrap;html=1;" vertex="1" parent="1">
          <mxGeometry x="15" y="590" width="90" height="100" as="geometry" />
        </mxCell>
        <mxCell id="JUChnPV1bCG0qRwm4uNy-50" value="&lt;div style=&quot;font-size: 7px;&quot; align=&quot;center&quot;&gt;Photo of vegetable&lt;br&gt;&lt;/div&gt;" style="rounded=0;whiteSpace=wrap;html=1;" vertex="1" parent="1">
          <mxGeometry x="150" y="590" width="90" height="100" as="geometry" />
        </mxCell>
        <mxCell id="JUChnPV1bCG0qRwm4uNy-52" value="&lt;div style=&quot;font-size: 7px;&quot; align=&quot;center&quot;&gt;Photo of vegetable&lt;br&gt;&lt;/div&gt;" style="rounded=0;whiteSpace=wrap;html=1;" vertex="1" parent="1">
          <mxGeometry x="300" y="590" width="90" height="100" as="geometry" />
        </mxCell>
        <mxCell id="JUChnPV1bCG0qRwm4uNy-53" value="&lt;div style=&quot;font-size: 7px;&quot; align=&quot;center&quot;&gt;Photo of vegetable&lt;br&gt;&lt;/div&gt;" style="rounded=0;whiteSpace=wrap;html=1;labelBackgroundColor=default;" vertex="1" parent="1">
          <mxGeometry x="455" y="590" width="90" height="100" as="geometry" />
        </mxCell>
        <mxCell id="JUChnPV1bCG0qRwm4uNy-54" value="" style="html=1;verticalLabelPosition=bottom;labelBackgroundColor=#ffffff;verticalAlign=top;shadow=0;dashed=0;strokeWidth=2;shape=mxgraph.ios7.misc.right;strokeColor=#0080f0;" vertex="1" parent="1">
          <mxGeometry x="560" y="613.75" width="20" height="32.5" as="geometry" />
        </mxCell>
        <mxCell id="JUChnPV1bCG0qRwm4uNy-57" value="" style="verticalLabelPosition=bottom;shadow=0;dashed=0;align=center;html=1;verticalAlign=top;strokeWidth=1;shape=mxgraph.mockup.misc.shoppingCart;strokeColor=#999999;" vertex="1" parent="1">
          <mxGeometry x="50" y="662.5" width="20" height="20" as="geometry" />
        </mxCell>
        <mxCell id="JUChnPV1bCG0qRwm4uNy-58" value="" style="verticalLabelPosition=bottom;shadow=0;dashed=0;align=center;html=1;verticalAlign=top;strokeWidth=1;shape=mxgraph.mockup.misc.shoppingCart;strokeColor=#999999;" vertex="1" parent="1">
          <mxGeometry x="185" y="662.5" width="20" height="20" as="geometry" />
        </mxCell>
        <mxCell id="JUChnPV1bCG0qRwm4uNy-59" value="" style="verticalLabelPosition=bottom;shadow=0;dashed=0;align=center;html=1;verticalAlign=top;strokeWidth=1;shape=mxgraph.mockup.misc.shoppingCart;strokeColor=#999999;" vertex="1" parent="1">
          <mxGeometry x="335" y="662.5" width="20" height="20" as="geometry" />
        </mxCell>
        <mxCell id="JUChnPV1bCG0qRwm4uNy-61" value="" style="verticalLabelPosition=bottom;shadow=0;dashed=0;align=center;html=1;verticalAlign=top;strokeWidth=1;shape=mxgraph.mockup.misc.shoppingCart;strokeColor=#999999;" vertex="1" parent="1">
          <mxGeometry x="490" y="657.5" width="20" height="25" as="geometry" />
        </mxCell>
        <mxCell id="JUChnPV1bCG0qRwm4uNy-63" value="&lt;h1 style=&quot;font-size: 23px;&quot;&gt;&lt;font size=&quot;1&quot;&gt;&lt;b&gt;&lt;font style=&quot;font-size: 22px;&quot;&gt;About us&lt;/font&gt;&lt;/b&gt;&lt;/font&gt;&lt;/h1&gt;" style="text;html=1;strokeColor=none;fillColor=none;align=center;verticalAlign=middle;whiteSpace=wrap;rounded=0;" vertex="1" parent="1">
          <mxGeometry x="195" y="710" width="160" height="30" as="geometry" />
        </mxCell>
        <mxCell id="JUChnPV1bCG0qRwm4uNy-64" value="Image of fresh herbs" style="rounded=0;whiteSpace=wrap;html=1;" vertex="1" parent="1">
          <mxGeometry x="50" y="760" width="190" height="360" as="geometry" />
        </mxCell>
        <mxCell id="JUChnPV1bCG0qRwm4uNy-65" value="Text with Seo Keywords." style="rounded=0;whiteSpace=wrap;html=1;" vertex="1" parent="1">
          <mxGeometry x="240" y="760" width="280" height="360" as="geometry" />
        </mxCell>
        <mxCell id="JUChnPV1bCG0qRwm4uNy-69" value="Our locations" style="text;html=1;strokeColor=none;fillColor=none;align=center;verticalAlign=middle;whiteSpace=wrap;rounded=0;fontStyle=3;fontSize=13;horizontal=1;" vertex="1" parent="1">
          <mxGeometry x="166.5" y="1140" width="217" height="30" as="geometry" />
        </mxCell>
        <mxCell id="JUChnPV1bCG0qRwm4uNy-70" value="" style="verticalLabelPosition=bottom;shadow=0;dashed=0;align=center;html=1;verticalAlign=top;strokeWidth=1;shape=mxgraph.mockup.misc.map;" vertex="1" parent="1">
          <mxGeometry x="20" y="1190" width="250" height="250" as="geometry" />
        </mxCell>
        <mxCell id="JUChnPV1bCG0qRwm4uNy-71" value="" style="verticalLabelPosition=bottom;shadow=0;dashed=0;align=center;html=1;verticalAlign=top;strokeWidth=1;shape=mxgraph.mockup.misc.map;" vertex="1" parent="1">
          <mxGeometry x="325" y="1190" width="250" height="250" as="geometry" />
        </mxCell>
        <mxCell id="JUChnPV1bCG0qRwm4uNy-74" value="&lt;h1&gt;Heading&lt;/h1&gt;&lt;p&gt;Lorem ipsum dolor sit amet, consectetur adipisicing elit, sed do eiusmod tempor incididunt ut labore et dolore magna aliqua.&lt;/p&gt;" style="text;html=1;strokeColor=none;fillColor=none;spacing=5;spacingTop=-20;whiteSpace=wrap;overflow=hidden;rounded=0;" vertex="1" parent="1">
          <mxGeometry x="47" y="1450" width="190" height="120" as="geometry" />
        </mxCell>
        <mxCell id="JUChnPV1bCG0qRwm4uNy-75" value="&lt;h1&gt;Heading&lt;/h1&gt;&lt;p&gt;Lorem ipsum dolor sit amet, consectetur adipisicing elit, sed do eiusmod tempor incididunt ut labore et dolore magna aliqua.&lt;/p&gt;" style="text;html=1;strokeColor=none;fillColor=none;spacing=5;spacingTop=-20;whiteSpace=wrap;overflow=hidden;rounded=0;" vertex="1" parent="1">
          <mxGeometry x="380" y="1450" width="190" height="120" as="geometry" />
        </mxCell>
        <mxCell id="JUChnPV1bCG0qRwm4uNy-77" value="" style="rounded=0;whiteSpace=wrap;html=1;movable=0;resizable=0;rotatable=0;deletable=0;editable=0;locked=1;connectable=0;" vertex="1" parent="1">
          <mxGeometry x="-115" y="1630" width="790" height="260" as="geometry" />
        </mxCell>
        <mxCell id="JUChnPV1bCG0qRwm4uNy-83" value="" style="rounded=0;whiteSpace=wrap;html=1;" vertex="1" parent="1">
          <mxGeometry x="410" y="1630" width="265" height="260" as="geometry" />
        </mxCell>
        <mxCell id="JUChnPV1bCG0qRwm4uNy-85" value="" style="rounded=0;whiteSpace=wrap;html=1;" vertex="1" parent="1">
          <mxGeometry x="-115" y="1630" width="265" height="260" as="geometry" />
        </mxCell>
        <mxCell id="JUChnPV1bCG0qRwm4uNy-87" value="&lt;div&gt;navigation links&lt;/div&gt;" style="text;html=1;strokeColor=none;fillColor=none;align=center;verticalAlign=middle;whiteSpace=wrap;rounded=0;" vertex="1" parent="1">
          <mxGeometry x="-20" y="1650" width="60" height="30" as="geometry" />
        </mxCell>
        <mxCell id="JUChnPV1bCG0qRwm4uNy-89" value="" style="line;strokeWidth=2;direction=south;html=1;rotation=90;" vertex="1" parent="1">
          <mxGeometry x="6" y="1650" width="10" height="110" as="geometry" />
        </mxCell>
        <mxCell id="JUChnPV1bCG0qRwm4uNy-90" value="" style="line;strokeWidth=2;direction=south;html=1;rotation=90;" vertex="1" parent="1">
          <mxGeometry x="5" y="1680" width="10" height="110" as="geometry" />
        </mxCell>
        <mxCell id="JUChnPV1bCG0qRwm4uNy-91" value="" style="line;strokeWidth=2;direction=south;html=1;rotation=90;" vertex="1" parent="1">
          <mxGeometry x="5" y="1710" width="10" height="110" as="geometry" />
        </mxCell>
        <mxCell id="JUChnPV1bCG0qRwm4uNy-93" value="" style="line;strokeWidth=2;direction=south;html=1;rotation=90;" vertex="1" parent="1">
          <mxGeometry x="6" y="1740" width="10" height="110" as="geometry" />
        </mxCell>
        <mxCell id="JUChnPV1bCG0qRwm4uNy-94" value="" style="line;strokeWidth=2;direction=south;html=1;rotation=90;" vertex="1" parent="1">
          <mxGeometry x="5" y="1770" width="10" height="110" as="geometry" />
        </mxCell>
        <mxCell id="JUChnPV1bCG0qRwm4uNy-95" value="&lt;div&gt;Newsletter&lt;/div&gt;" style="text;html=1;strokeColor=none;fillColor=none;align=center;verticalAlign=middle;whiteSpace=wrap;rounded=0;" vertex="1" parent="1">
          <mxGeometry x="250" y="1650" width="60" height="30" as="geometry" />
        </mxCell>
        <mxCell id="JUChnPV1bCG0qRwm4uNy-96" value="" style="html=1;shadow=0;dashed=0;fillColor=#F8F9FA;strokeColor=none;fontSize=16;fontColor=#181819;align=left;spacing=15;" vertex="1" parent="1">
          <mxGeometry x="166.5" y="1710" width="220" height="60" as="geometry" />
        </mxCell>
        <mxCell id="JUChnPV1bCG0qRwm4uNy-97" value="Username" style="html=1;shadow=0;dashed=0;shape=mxgraph.bootstrap.rrect;rSize=5;strokeColor=#CED4DA;html=1;whiteSpace=wrap;fillColor=#FFFFFF;fontColor=#7D868C;align=left;spacingLeft=50;fontSize=14;" vertex="1" parent="JUChnPV1bCG0qRwm4uNy-96">
          <mxGeometry width="200" height="40" relative="1" as="geometry">
            <mxPoint x="10" y="10" as="offset" />
          </mxGeometry>
        </mxCell>
        <mxCell id="JUChnPV1bCG0qRwm4uNy-98" value="@" style="html=1;shadow=0;dashed=0;shape=mxgraph.bootstrap.leftButton;strokeColor=inherit;gradientColor=inherit;fontColor=inherit;fillColor=#E9ECEF;rSize=5;perimeter=none;whiteSpace=wrap;resizeHeight=1;" vertex="1" parent="JUChnPV1bCG0qRwm4uNy-97">
          <mxGeometry width="40" height="40" relative="1" as="geometry" />
        </mxCell>
        <mxCell id="JUChnPV1bCG0qRwm4uNy-99" value="Primary" style="rounded=1;fillColor=#0057D8;strokeColor=none;html=1;whiteSpace=wrap;fontColor=#ffffff;align=center;verticalAlign=middle;fontStyle=0;fontSize=12;sketch=0;" vertex="1" parent="1">
          <mxGeometry x="237" y="1800" width="86" height="33" as="geometry" />
        </mxCell>
        <mxCell id="JUChnPV1bCG0qRwm4uNy-100" value="Legal Informations" style="text;html=1;strokeColor=none;fillColor=none;align=center;verticalAlign=middle;whiteSpace=wrap;rounded=0;" vertex="1" parent="1">
          <mxGeometry x="460" y="1650" width="170" height="30" as="geometry" />
        </mxCell>
        <mxCell id="JUChnPV1bCG0qRwm4uNy-101" value="impressum" style="text;html=1;strokeColor=none;fillColor=none;align=center;verticalAlign=middle;whiteSpace=wrap;rounded=0;" vertex="1" parent="1">
          <mxGeometry x="515" y="1690" width="60" height="30" as="geometry" />
        </mxCell>
        <mxCell id="JUChnPV1bCG0qRwm4uNy-102" value="&#xa;Terms of Service &#xa;&#xa;" style="text;html=1;strokeColor=none;fillColor=none;align=center;verticalAlign=middle;whiteSpace=wrap;rounded=0;" vertex="1" parent="1">
          <mxGeometry x="490" y="1730" width="110" height="30" as="geometry" />
        </mxCell>
        <mxCell id="JUChnPV1bCG0qRwm4uNy-104" value="Privacy Policy" style="text;html=1;strokeColor=none;fillColor=none;align=center;verticalAlign=middle;whiteSpace=wrap;rounded=0;" vertex="1" parent="1">
          <mxGeometry x="475.5" y="1760" width="123" height="30" as="geometry" />
        </mxCell>
        <mxCell id="JUChnPV1bCG0qRwm4uNy-105" value="Disclamer" style="text;html=1;strokeColor=none;fillColor=none;align=center;verticalAlign=middle;whiteSpace=wrap;rounded=0;" vertex="1" parent="1">
          <mxGeometry x="491" y="1800" width="103" height="30" as="geometry" />
        </mxCell>
      </root>
    </mxGraphModel>
  </diagram>
</mxfile>
